<svg id="Layer_1" data-name="Layer 1" xmlns="http://www.w3.org/2000/svg" viewBox="0 0 398.6 510.69"><path d="M392.43,329.52l-36.7-36.71a21.05,21.05,0,0,0-14.84-6.17H251.6a21.08,21.08,0,0,0-21,21.05v182a21,21,0,0,0,21,21h126a21,21,0,0,0,21-21V344.39A21.1,21.1,0,0,0,392.43,329.52Zm-16.54,13.17H342.6v-33.3Zm-124.29,147v-182h70v45.5a10.47,10.47,0,0,0,10.5,10.5h45.5v126Z"/><path d="M392.43,42.88,355.73,6.17A21,21,0,0,0,340.89,0H251.6a21.07,21.07,0,0,0-21,21V203a21,21,0,0,0,21,21h126a21,21,0,0,0,21-21V57.75A21.06,21.06,0,0,0,392.43,42.88ZM375.89,56H342.6V22.75ZM251.6,203V21h70v45.5A10.47,10.47,0,0,0,332.1,77h45.5V203Z"/><path d="M161.83,329.52l-36.71-36.71a21,21,0,0,0-14.83-6.17H21A21.08,21.08,0,0,0,0,307.69v182a21,21,0,0,0,21,21H147a21,21,0,0,0,21-21V344.39A21.1,21.1,0,0,0,161.83,329.52Zm-16.54,13.17H112v-33.3ZM21,489.69v-182H91v45.5a10.47,10.47,0,0,0,10.5,10.5H147v126Z"/><path d="M161.83,42.88,125.12,6.17A21,21,0,0,0,110.29,0H21A21.07,21.07,0,0,0,0,21V203a21,21,0,0,0,21,21H147a21,21,0,0,0,21-21V57.75A21.06,21.06,0,0,0,161.83,42.88ZM145.29,56H112V22.75ZM21,203V21H91v45.5A10.47,10.47,0,0,0,101.5,77H147V203Z"/></svg>