<?xml version="1.0" encoding="UTF-8" standalone="no"?>
<!DOCTYPE svg PUBLIC "-//W3C//DTD SVG 1.1//EN" "http://www.w3.org/Graphics/SVG/1.1/DTD/svg11.dtd">
<svg version="1.1" xmlns="http://www.w3.org/2000/svg" xmlns:xlink="http://www.w3.org/1999/xlink" preserveAspectRatio="xMidYMid meet" viewBox="0 0 640 640" width="640" height="640"><defs><path d="M506.63 428.75C501 423.13 493.38 420 485.38 420C483.34 420 467.04 420 465 420C499.5 375.88 520 320.38 520 260C520 116.38 403.63 0 260 0C116.38 0 0 116.38 0 260C0 403.63 116.38 520 260 520C320.38 520 375.88 499.5 420 465C420 467.04 420 483.34 420 485.38C420 493.38 423.13 501 428.75 506.63C441.21 519.09 540.91 618.79 553.38 631.25C565.13 643 584.13 643 595.75 631.25C599.29 627.71 627.59 599.41 631.13 595.88C642.88 584.13 642.88 565.13 631.25 553.38C606.33 528.45 519.09 441.21 506.63 428.75ZM100 260C100 171.63 171.5 100 260 100C348.38 100 420 171.5 420 260C420 348.38 348.5 420 260 420C171.63 420 100 348.5 100 260Z" id="a1d73Z4Un"></path></defs><g><g><g><use xlink:href="#a1d73Z4Un" opacity="1" fill="#ffffff" fill-opacity="1"></use><g><use xlink:href="#a1d73Z4Un" opacity="1" fill-opacity="0" stroke="#000000" stroke-width="1" stroke-opacity="0"></use></g></g></g></g></svg>